<svg width="16" height="16" viewBox="0 0 16 16" fill="none" xmlns="http://www.w3.org/2000/svg">
<path d="M8.9952 14.7912L8.9952 3.62148L13.8747 8.50099C14.2647 8.89099 14.9052 8.89099 15.2952 8.50099C15.3879 8.40847 15.4615 8.29858 15.5116 8.17761C15.5618 8.05664 15.5876 7.92695 15.5876 7.79599C15.5876 7.66502 15.5618 7.53534 15.5116 7.41436C15.4615 7.29339 15.3879 7.1835 15.2952 7.09099L8.70495 0.501484C8.31495 0.111484 7.68495 0.111484 7.29495 0.501484L0.704703 7.09099C0.314704 7.48099 0.314704 8.11098 0.704703 8.50098C1.0947 8.89098 1.7247 8.89098 2.1147 8.50098L6.99495 3.62148L6.99495 14.7912C6.99495 15.341 7.44495 15.791 7.9947 15.791C8.54445 15.791 8.9952 15.341 8.9952 14.7912Z" fill="#172B4D"/>
</svg>
