<svg width="16" height="16" viewBox="0 0 16 16" fill="none" xmlns="http://www.w3.org/2000/svg">
<path d="M7.00034 1.20873L7.00034 12.3785L2.12009 7.49898C1.73009 7.10898 1.09034 7.10898 0.700342 7.49898C0.310341 7.88898 0.310341 8.51898 0.700342 8.90898L7.28984 15.4985C7.67984 15.8885 8.30984 15.8885 8.69984 15.4985L15.2998 8.91874C15.3925 8.82622 15.4661 8.71633 15.5163 8.59536C15.5665 8.47439 15.5923 8.3447 15.5923 8.21373C15.5923 8.08277 15.5665 7.95308 15.5163 7.83211C15.4661 7.71114 15.3925 7.60125 15.2998 7.50873C14.9098 7.11873 14.2798 7.11873 13.8898 7.50873L8.99984 12.3785L8.99984 1.20873C8.99984 0.658984 8.54984 0.208984 8.00009 0.208984C7.45034 0.208984 7.00034 0.658984 7.00034 1.20873Z" fill="#172B4D"/>
</svg>
