<svg width="48" height="48" viewBox="0 0 48 48" fill="none" xmlns="http://www.w3.org/2000/svg">
<circle cx="24" cy="24" r="24" fill="#F7EFED"/>
<path d="M30.9998 15.9997H30V15C30 14.4502 29.55 14.0002 29.0002 14.0002C28.4505 14.0002 27.9998 14.4502 27.9998 15V15.9997H20.0002V15C20.0002 14.4502 19.5503 14.0002 18.9998 14.0002C18.4493 14.0002 18 14.4502 18 15V15.9997H17.0002C15.8902 15.9997 15.0098 16.8997 15.0098 18L15 32.0002C15 32.2629 15.0517 32.523 15.1523 32.7656C15.2528 33.0082 15.4002 33.2287 15.5859 33.4144C15.7717 33.6 15.9922 33.7473 16.2348 33.8478C16.4775 33.9482 16.7376 33.9998 17.0002 33.9997H30.9998C32.1 33.9997 33 33.0997 33 32.0002V18C33 16.8997 32.1 15.9997 30.9998 15.9997ZM30.9998 30.9997C30.9998 31.5502 30.5498 32.0002 30 32.0002H18C17.4502 32.0002 17.0002 31.5502 17.0002 30.9997V21H30.9998V30.9997ZM21 24.9997V23.0002H18.9998V24.9997H21ZM23.0002 23.0002H24.9998V24.9997H23.0002V23.0002ZM29.0002 24.9997V23.0002H27V24.9997H29.0002Z" fill="#8A4C51"/>
</svg>
