<svg width="48" height="48" viewBox="0 0 48 48" fill="none" xmlns="http://www.w3.org/2000/svg">
<circle cx="24" cy="24" r="24" fill="#F7EFED"/>
<path d="M32.3333 34H33.1666C33.6666 34 33.9999 33.6666 33.9999 33.1666V25.6666C33.9999 25.1666 33.6666 24.8333 33.1666 24.8333H32.3333V33.1666V34Z" fill="#8A4C51"/>
<path d="M15.6667 33.1666V24.8333H14.8333C14.3333 24.8333 14 25.1666 14 25.6666V33.1666C14 33.6666 14.3333 34 14.8333 34H15.6667V33.1666Z" fill="#8A4C51"/>
<path d="M29.8333 14H18.1666C17.6666 14 17.3333 14.3333 17.3333 14.8333V33.1667C17.3333 33.6667 17.6666 34 18.1666 34H23.1666V30.6667H24.8333V34H29.8333C30.3333 34 30.6666 33.6667 30.6666 33.1667V14.8333C30.6666 14.3333 30.3333 14 29.8333 14ZM22.3333 28.1667H19.8333V26.5H22.3333V28.1667ZM22.3333 24.8333H19.8333V23.1667H22.3333V24.8333ZM22.3333 21.5H19.8333V19.8333H22.3333V21.5ZM22.3333 18.1667H19.8333V16.5H22.3333V18.1667ZM28.1666 28.1667H25.6666V26.5H28.1666V28.1667ZM28.1666 24.8333H25.6666V23.1667H28.1666V24.8333ZM28.1666 21.5H25.6666V19.8333H28.1666V21.5ZM28.1666 18.1667H25.6666V16.5H28.1666V18.1667Z" fill="#8A4C51"/>
</svg>
