<svg width="172" height="97" viewBox="0 0 172 97" fill="none" xmlns="http://www.w3.org/2000/svg">
<g clip-path="url(#clip0)">
<mask id="path-2-inside-1" fill="white">
<path d="M84.9328 46.3746C84.9335 46.6849 84.8757 46.9925 84.7624 47.2814L84.6262 47.3495L84.2515 47.7235L83.8881 47.9389H83.7065L83.5816 48.0409L83.1728 48.143C83.1166 48.1486 83.0645 48.175 83.0267 48.2169C82.9889 48.2588 82.9681 48.3133 82.9684 48.3697L83.0479 48.6417L82.8889 48.7438V48.9138C82.9051 48.9923 82.9051 49.0733 82.8889 49.1518C82.8709 49.1593 82.8516 49.1632 82.8321 49.1632C82.8127 49.1632 82.7934 49.1593 82.7754 49.1518H82.571C82.5657 49.2473 82.5983 49.341 82.6618 49.4126L82.5369 49.5713L82.4007 49.6846L82.2758 49.8207L81.8443 50.0814L81.7535 50.2174L81.481 50.2854L80.97 50.6028L80.4023 50.8409L79.7664 51.0336H79.2554L78.8353 51.1243H78.6536H78.3471L78.1654 50.9996C78.1413 51.016 78.1214 51.0379 78.1076 51.0636C78.0938 51.0892 78.0863 51.1178 78.0859 51.1469H77.9269C77.7809 51.1532 77.6349 51.134 77.4955 51.0903C77.3995 51.0418 77.3233 50.9617 77.2797 50.8635H77.2116V50.8975V51.0336H77.0186L76.8142 50.8975C76.6607 50.7762 76.5165 50.6435 76.3827 50.5008C76.2816 50.3662 76.1942 50.2219 76.1216 50.07C76.1189 50.0035 76.1035 49.9381 76.0761 49.8773V49.764L75.9853 49.6733L75.7355 49.5373V49.3786V49.2765C75.7794 49.2931 75.8278 49.2931 75.8718 49.2765C75.9126 49.2438 75.9439 49.2007 75.9626 49.1518L75.8718 49.0385H75.7355C75.656 49.0385 75.6106 48.9705 75.6106 48.8344C75.6126 48.7167 75.6397 48.6008 75.6901 48.4944L75.8945 48.0636L76.0307 47.7916L76.1443 47.6555L76.2805 47.4288L76.4168 47.3381L76.6439 47.0774L76.871 46.9754L77.0867 46.6353L77.3251 46.4086V46.2612L77.7226 46.0799L77.8475 45.9552L77.9497 45.8531C77.8329 45.8086 77.7252 45.7433 77.6317 45.6604C77.5807 45.5705 77.5534 45.4691 77.5522 45.3657H77.2797L76.8483 44.8783V44.7082C76.8483 44.6402 76.8483 44.5835 76.7006 44.5269L76.8483 44.2095H76.7915V44.1074C76.7777 44.0363 76.7777 43.9632 76.7915 43.8921C76.8329 43.8291 76.8826 43.7719 76.9391 43.722C76.9871 43.7376 77.0387 43.7376 77.0867 43.722C77.1266 43.6772 77.161 43.6277 77.1889 43.5747C77.2588 43.4558 77.3514 43.3518 77.4614 43.2686C77.5757 43.1763 77.7068 43.107 77.8475 43.0645V42.9172H78.12L78.2789 42.7585L79.0738 42.4524L79.4144 42.237H79.8686L80.618 42.0557C80.7011 42.0562 80.782 42.0827 80.8492 42.1315C80.9164 42.1803 80.9666 42.249 80.9927 42.3277L81.1857 42.3957L81.2539 42.6791C81.3126 42.7305 81.3559 42.7973 81.3788 42.8718C81.3788 42.9399 81.3106 43.0079 81.1971 43.0645L81.0722 43.0079L80.6066 42.8945L80.425 42.8265L80.266 42.8945L80.073 42.7925V42.8718H79.914L79.6756 42.8038L79.3009 42.9172H79.1078H78.9943L78.6082 43.0532L78.4493 43.1439H78.3244L77.7793 43.5973L77.6317 43.6767C77.5685 43.8268 77.519 43.9824 77.4841 44.1414V44.2888L77.6431 44.4475L77.7907 44.5609V44.6969L77.9951 44.8216L78.1654 44.9463L79.0738 45.1617L79.2554 45.2297H79.403H80.1525L80.4817 45.105H80.8451L81.129 45.037L81.3901 45.1163L81.1744 45.6378L80.9813 45.7284C80.8703 45.7502 80.7631 45.7884 80.6634 45.8418C80.6334 45.8563 80.6068 45.8769 80.5853 45.9023C80.5638 45.9277 80.5479 45.9573 80.5385 45.9892L80.3114 45.9212L80.1865 45.8191L80.0503 45.7511L79.8572 45.8305L79.6642 45.7625L79.5734 45.8305H79.21L78.8467 46.0118H78.5628L78.4038 46.0799L78.5174 46.2272H78.2562L77.8929 46.4539L77.6204 46.59L77.1208 47.1794C77.0494 47.2373 76.9625 47.2728 76.871 47.2814C76.8262 47.4599 76.7574 47.6315 76.6666 47.7916L76.5644 48.1656V48.4037V48.5284L76.6325 48.6757V49.0498L76.7574 49.2652L76.8256 49.4352L76.9732 49.5826L77.0981 49.7866L77.5522 50.2401L77.6885 50.3761L77.8475 50.4781L78.0064 50.5348L78.4038 50.6255H78.8694H79.0851V50.6935H79.2327H79.5961L79.7891 50.6028H79.9821L80.6634 50.3308H80.8678V50.2061C81.0672 50.0931 81.257 49.9642 81.4355 49.8207C81.5766 49.6938 81.6955 49.5444 81.7875 49.3786L81.9011 49.1858V48.8798V48.6304C81.9011 48.5397 81.7875 48.4264 81.6059 48.2677L81.129 47.9049L80.8792 47.6782C80.7931 47.6327 80.7015 47.5984 80.6066 47.5762L80.2887 47.4175H80.073L79.721 47.5082L79.4939 47.5648C79.489 47.5796 79.4852 47.5948 79.4825 47.6102L79.3236 47.9049L79.176 48.0636L79.2441 48.3697C79.2441 48.3697 79.2441 48.3697 79.176 48.4717C79.1178 48.5174 79.0456 48.5415 78.9716 48.5397C78.9424 48.5511 78.9099 48.5511 78.8807 48.5397L78.8013 48.449L78.6196 48.347C78.5885 48.3184 78.5642 48.2831 78.5484 48.2439C78.5327 48.2047 78.526 48.1625 78.5287 48.1203C78.5228 48.0684 78.529 48.0158 78.5467 47.9667C78.5644 47.9175 78.5932 47.8731 78.6309 47.8369L78.9148 47.6102L79.3122 47.2701L79.7437 47.1114L80.3795 46.8394H80.6521H80.9019L81.4128 46.9867L81.7762 47.1794V47.3268L81.8556 47.4968L81.9919 47.5535V47.4288V47.3268L82.1509 47.3948L82.5596 47.6555L82.8549 47.7916C83.1567 47.7401 83.4413 47.6155 83.6837 47.4288C83.8086 47.3495 83.8881 47.2814 83.8881 47.2474L83.9903 46.692C83.9412 46.4855 83.8349 46.297 83.6837 46.1479C83.7063 46.1012 83.737 46.0589 83.7746 46.0232L83.8995 45.9552L84.1152 45.8758L84.2401 46.0005L84.2969 46.0685L84.5921 46.1932C84.6568 46.2704 84.7068 46.3588 84.7397 46.4539L84.9328 46.3746Z"/>
</mask>
<path d="M84.9328 46.3746C84.9335 46.6849 84.8757 46.9925 84.7624 47.2814L84.6262 47.3495L84.2515 47.7235L83.8881 47.9389H83.7065L83.5816 48.0409L83.1728 48.143C83.1166 48.1486 83.0645 48.175 83.0267 48.2169C82.9889 48.2588 82.9681 48.3133 82.9684 48.3697L83.0479 48.6417L82.8889 48.7438V48.9138C82.9051 48.9923 82.9051 49.0733 82.8889 49.1518C82.8709 49.1593 82.8516 49.1632 82.8321 49.1632C82.8127 49.1632 82.7934 49.1593 82.7754 49.1518H82.571C82.5657 49.2473 82.5983 49.341 82.6618 49.4126L82.5369 49.5713L82.4007 49.6846L82.2758 49.8207L81.8443 50.0814L81.7535 50.2174L81.481 50.2854L80.97 50.6028L80.4023 50.8409L79.7664 51.0336H79.2554L78.8353 51.1243H78.6536H78.3471L78.1654 50.9996C78.1413 51.016 78.1214 51.0379 78.1076 51.0636C78.0938 51.0892 78.0863 51.1178 78.0859 51.1469H77.9269C77.7809 51.1532 77.6349 51.134 77.4955 51.0903C77.3995 51.0418 77.3233 50.9617 77.2797 50.8635H77.2116V50.8975V51.0336H77.0186L76.8142 50.8975C76.6607 50.7762 76.5165 50.6435 76.3827 50.5008C76.2816 50.3662 76.1942 50.2219 76.1216 50.07C76.1189 50.0035 76.1035 49.9381 76.0761 49.8773V49.764L75.9853 49.6733L75.7355 49.5373V49.3786V49.2765C75.7794 49.2931 75.8278 49.2931 75.8718 49.2765C75.9126 49.2438 75.9439 49.2007 75.9626 49.1518L75.8718 49.0385H75.7355C75.656 49.0385 75.6106 48.9705 75.6106 48.8344C75.6126 48.7167 75.6397 48.6008 75.6901 48.4944L75.8945 48.0636L76.0307 47.7916L76.1443 47.6555L76.2805 47.4288L76.4168 47.3381L76.6439 47.0774L76.871 46.9754L77.0867 46.6353L77.3251 46.4086V46.2612L77.7226 46.0799L77.8475 45.9552L77.9497 45.8531C77.8329 45.8086 77.7252 45.7433 77.6317 45.6604C77.5807 45.5705 77.5534 45.4691 77.5522 45.3657H77.2797L76.8483 44.8783V44.7082C76.8483 44.6402 76.8483 44.5835 76.7006 44.5269L76.8483 44.2095H76.7915V44.1074C76.7777 44.0363 76.7777 43.9632 76.7915 43.8921C76.8329 43.8291 76.8826 43.7719 76.9391 43.722C76.9871 43.7376 77.0387 43.7376 77.0867 43.722C77.1266 43.6772 77.161 43.6277 77.1889 43.5747C77.2588 43.4558 77.3514 43.3518 77.4614 43.2686C77.5757 43.1763 77.7068 43.107 77.8475 43.0645V42.9172H78.12L78.2789 42.7585L79.0738 42.4524L79.4144 42.237H79.8686L80.618 42.0557C80.7011 42.0562 80.782 42.0827 80.8492 42.1315C80.9164 42.1803 80.9666 42.249 80.9927 42.3277L81.1857 42.3957L81.2539 42.6791C81.3126 42.7305 81.3559 42.7973 81.3788 42.8718C81.3788 42.9399 81.3106 43.0079 81.1971 43.0645L81.0722 43.0079L80.6066 42.8945L80.425 42.8265L80.266 42.8945L80.073 42.7925V42.8718H79.914L79.6756 42.8038L79.3009 42.9172H79.1078H78.9943L78.6082 43.0532L78.4493 43.1439H78.3244L77.7793 43.5973L77.6317 43.6767C77.5685 43.8268 77.519 43.9824 77.4841 44.1414V44.2888L77.6431 44.4475L77.7907 44.5609V44.6969L77.9951 44.8216L78.1654 44.9463L79.0738 45.1617L79.2554 45.2297H79.403H80.1525L80.4817 45.105H80.8451L81.129 45.037L81.3901 45.1163L81.1744 45.6378L80.9813 45.7284C80.8703 45.7502 80.7631 45.7884 80.6634 45.8418C80.6334 45.8563 80.6068 45.8769 80.5853 45.9023C80.5638 45.9277 80.5479 45.9573 80.5385 45.9892L80.3114 45.9212L80.1865 45.8191L80.0503 45.7511L79.8572 45.8305L79.6642 45.7625L79.5734 45.8305H79.21L78.8467 46.0118H78.5628L78.4038 46.0799L78.5174 46.2272H78.2562L77.8929 46.4539L77.6204 46.59L77.1208 47.1794C77.0494 47.2373 76.9625 47.2728 76.871 47.2814C76.8262 47.4599 76.7574 47.6315 76.6666 47.7916L76.5644 48.1656V48.4037V48.5284L76.6325 48.6757V49.0498L76.7574 49.2652L76.8256 49.4352L76.9732 49.5826L77.0981 49.7866L77.5522 50.2401L77.6885 50.3761L77.8475 50.4781L78.0064 50.5348L78.4038 50.6255H78.8694H79.0851V50.6935H79.2327H79.5961L79.7891 50.6028H79.9821L80.6634 50.3308H80.8678V50.2061C81.0672 50.0931 81.257 49.9642 81.4355 49.8207C81.5766 49.6938 81.6955 49.5444 81.7875 49.3786L81.9011 49.1858V48.8798V48.6304C81.9011 48.5397 81.7875 48.4264 81.6059 48.2677L81.129 47.9049L80.8792 47.6782C80.7931 47.6327 80.7015 47.5984 80.6066 47.5762L80.2887 47.4175H80.073L79.721 47.5082L79.4939 47.5648C79.489 47.5796 79.4852 47.5948 79.4825 47.6102L79.3236 47.9049L79.176 48.0636L79.2441 48.3697C79.2441 48.3697 79.2441 48.3697 79.176 48.4717C79.1178 48.5174 79.0456 48.5415 78.9716 48.5397C78.9424 48.5511 78.9099 48.5511 78.8807 48.5397L78.8013 48.449L78.6196 48.347C78.5885 48.3184 78.5642 48.2831 78.5484 48.2439C78.5327 48.2047 78.526 48.1625 78.5287 48.1203C78.5228 48.0684 78.529 48.0158 78.5467 47.9667C78.5644 47.9175 78.5932 47.8731 78.6309 47.8369L78.9148 47.6102L79.3122 47.2701L79.7437 47.1114L80.3795 46.8394H80.6521H80.9019L81.4128 46.9867L81.7762 47.1794V47.3268L81.8556 47.4968L81.9919 47.5535V47.4288V47.3268L82.1509 47.3948L82.5596 47.6555L82.8549 47.7916C83.1567 47.7401 83.4413 47.6155 83.6837 47.4288C83.8086 47.3495 83.8881 47.2814 83.8881 47.2474L83.9903 46.692C83.9412 46.4855 83.8349 46.297 83.6837 46.1479C83.7063 46.1012 83.737 46.0589 83.7746 46.0232L83.8995 45.9552L84.1152 45.8758L84.2401 46.0005L84.2969 46.0685L84.5921 46.1932C84.6568 46.2704 84.7068 46.3588 84.7397 46.4539L84.9328 46.3746Z" fill="#8A4C51" stroke="#8A4C51" stroke-width="2" mask="url(#path-2-inside-1)"/>
<path d="M122.947 78.1261L122.947 78.1258C123.008 78.0048 123.02 77.898 122.989 77.812C122.957 77.7252 122.886 77.6695 122.803 77.6446C122.646 77.5976 122.436 77.6561 122.309 77.8267H122.289H122.26L122.246 77.8527C120.945 80.2239 119.306 81.5766 117.627 82.3514C115.947 83.1266 114.224 83.3246 112.751 83.3812C110.038 83.3809 107.181 82.2524 104.173 80.7368C102.951 80.121 101.705 79.4421 100.435 78.7499C100.143 78.5905 99.8493 78.4304 99.5543 78.2703C98.0023 77.4275 96.4148 76.5824 94.7926 75.8253C98.9712 72.5347 102.81 67.462 106.196 62.6171C112.224 61.0195 118.016 55.4601 120.969 50.6974C121.935 49.1656 122.396 47.9655 122.41 47.1435C122.418 46.7312 122.313 46.4081 122.096 46.1883C121.88 45.9685 121.56 45.8599 121.154 45.8599C120.347 45.8599 119.38 46.1903 118.336 46.7533C117.291 47.3168 116.163 48.116 115.033 49.0597C112.773 50.9469 110.499 53.4153 108.851 55.7425C108.185 56.6282 107.466 57.6488 106.68 58.764L106.622 58.8463C105.816 59.9891 104.941 61.2297 103.981 62.5266C102.972 62.655 101.949 62.616 100.953 62.4111L100.951 62.4108C99.0311 62.0725 97.0256 61.0572 95.6 59.5353C94.1752 58.0143 93.3307 55.9891 93.725 53.6266C94.4029 49.7926 97.0007 46.9697 100.626 44.9339C101.094 44.6997 101.255 44.3105 101.175 44.0261C101.136 43.8836 101.035 43.7703 100.888 43.7259C100.741 43.6819 100.557 43.7082 100.35 43.826L100.35 43.8259L100.348 43.8276C96.3647 46.4406 93.8567 49.9654 93.1724 53.609L93.1724 53.6094C92.3711 58.0661 96.0337 62.0525 100.82 62.9627L100.821 62.9629C101.728 63.1087 102.649 63.1496 103.566 63.0847C100.476 67.4522 96.887 71.4457 92.8716 74.9844C90.2865 73.8804 87.5176 73.2681 84.7072 73.1791L84.7072 73.179H84.7056C83.226 73.179 81.9972 73.3777 81.0938 73.7929C80.1888 74.2088 79.6076 74.8437 79.4334 75.7131C79.2594 76.582 79.5505 77.5917 80.4573 78.382C81.3635 79.1718 82.8812 79.7404 85.1598 79.7405L85.1614 79.7404C88.5701 79.6333 91.8371 78.355 94.4108 76.122C96.045 76.883 97.6307 77.7485 99.1824 78.6199C99.5456 78.8239 99.9069 79.0282 100.267 79.2315C101.452 79.902 102.62 80.5621 103.775 81.1659C106.785 82.7391 109.717 83.9342 112.682 83.9347C114.775 84.0807 116.865 83.6078 118.69 82.575C120.516 81.5419 121.997 79.9945 122.947 78.1261ZM83.731 78.847L83.7307 78.847C81.9801 78.7906 80.9448 78.2555 80.3746 77.6029C79.8037 76.9497 79.6932 76.1723 79.804 75.6194C79.9133 75.0739 80.352 74.5742 81.1524 74.2098C81.9525 73.8454 83.1081 73.6193 84.6361 73.6191C87.3234 73.7665 89.9714 74.3285 92.486 75.2849C89.6707 77.5178 86.6422 78.9587 83.731 78.847ZM111.475 55.2349L111.475 55.2345C113.376 52.6043 115.542 50.1759 117.94 47.9873L117.94 47.9873L117.942 47.9853C118.76 47.1517 119.823 46.6009 120.976 46.4133C121.304 46.4142 121.535 46.5166 121.678 46.6989C121.823 46.8836 121.887 47.1595 121.859 47.5214C121.803 48.2457 121.383 49.2858 120.589 50.5307L120.589 50.531C117.777 55.0227 112.401 60.2906 106.677 62.0303C107.362 61.0721 108.027 60.1154 108.681 59.1743C109.627 57.8143 110.551 56.4869 111.475 55.2349Z" fill="#8A4C51" stroke="#8A4C51" stroke-width="0.1"/>
<path d="M113.321 67.0836L113.321 67.0836L113.319 67.0864C113.224 67.2907 113.123 67.5038 113.019 67.7237C112.261 69.3318 111.327 71.3109 110.889 72.961C110.64 73.8977 110.548 74.7388 110.746 75.3486C110.846 75.6553 111.019 75.9045 111.283 76.0764C111.547 76.2479 111.896 76.3396 112.343 76.3396C112.981 76.3396 113.742 76.0507 114.559 75.5638C115.378 75.0762 116.257 74.3865 117.131 73.5774C118.88 71.959 120.615 69.8585 121.809 67.9274L121.811 67.9282L121.814 67.917C121.877 67.7303 121.818 67.5871 121.704 67.5305C121.594 67.4755 121.452 67.5144 121.383 67.6495C120.363 69.2332 118.748 71.2695 117.048 72.9095C116.198 73.73 115.328 74.4501 114.502 74.9648C113.675 75.4802 112.896 75.7861 112.229 75.7861C111.939 75.7861 111.753 75.7104 111.644 75.5836C111.534 75.4561 111.491 75.2661 111.511 75.0165C111.551 74.5159 111.84 73.812 112.259 73.0112C112.677 72.2125 113.219 71.3248 113.756 70.4585C113.837 70.3289 113.917 70.1997 113.997 70.0713C114.45 69.3431 114.886 68.6425 115.225 68.0391C115.456 67.6347 115.504 67.2876 115.424 67.014C115.345 66.7398 115.14 66.5484 114.887 66.4516C114.382 66.2588 113.674 66.4374 113.321 67.0836ZM116.544 63.6435H116.561L116.575 63.6329C116.897 63.3805 117.17 63.07 117.379 62.7174C117.407 62.6881 117.432 62.6558 117.445 62.622C117.46 62.5852 117.463 62.542 117.437 62.503C117.413 62.4671 117.371 62.4449 117.32 62.4312C117.268 62.4172 117.199 62.41 117.112 62.41C116.918 62.41 116.763 62.5386 116.647 62.6838C116.53 62.8296 116.443 63.0035 116.386 63.1163L116.386 63.1177C116.323 63.2432 116.322 63.3704 116.354 63.4677C116.371 63.5162 116.396 63.5587 116.427 63.59C116.458 63.621 116.498 63.6435 116.544 63.6435Z" fill="#8A4C51" stroke="#8A4C51" stroke-width="0.1"/>
<path d="M125.876 80.5294L125.876 80.5294L125.878 80.5284C126.652 80.1276 127.551 79.3359 128.494 78.329C129.438 77.3211 130.429 76.0938 131.388 74.8178C133.305 72.2659 135.094 69.516 136.116 67.9288C136.177 67.837 136.198 67.7522 136.181 67.6795C136.165 67.6059 136.112 67.5557 136.051 67.5295C135.934 67.4793 135.761 67.5095 135.69 67.6504C135.008 68.7843 132.909 72.0685 130.712 74.9844C129.612 76.4433 128.489 77.8082 127.507 78.7655C127.016 79.2444 126.562 79.6194 126.165 79.8533C125.767 80.0881 125.438 80.1741 125.19 80.0968C125.064 80.0459 124.982 79.9536 124.938 79.8204C124.893 79.6844 124.887 79.5045 124.92 79.2832C124.984 78.8408 125.198 78.2511 125.517 77.5576C126.154 76.1719 127.203 74.3889 128.282 72.5745L128.282 72.5742C128.388 72.3928 128.495 72.211 128.601 72.029C129.693 70.1647 130.793 68.2848 131.492 66.7459C131.876 65.9018 132.141 65.1559 132.217 64.569C132.292 63.9837 132.18 63.5366 131.783 63.323C131.394 63.1141 130.809 63.1559 130.103 63.4067C129.395 63.6586 128.553 64.1254 127.642 64.786C125.971 65.9981 124.063 67.8662 122.31 70.2696C122.554 69.8105 122.803 69.3316 123.068 68.8234C123.411 68.1646 123.78 67.4565 124.196 66.6779L124.196 66.6781L124.198 66.673C124.265 66.5064 124.195 66.317 124.069 66.1497C123.942 65.9801 123.748 65.8198 123.537 65.7037C123.327 65.5879 123.094 65.5129 122.888 65.5204C122.68 65.5281 122.498 65.6213 122.403 65.8394C119.938 70.5476 118.788 73.1353 117.903 75.1268C117.85 75.2452 117.798 75.3615 117.747 75.4759L117.747 75.4758L117.746 75.4804C117.724 75.5449 117.748 75.6115 117.788 75.6695C117.828 75.7286 117.891 75.7886 117.967 75.8461C118.119 75.9613 118.333 76.0734 118.557 76.1527C118.78 76.2318 119.019 76.2802 119.218 76.2634C119.419 76.2466 119.592 76.1619 119.657 75.9655L119.658 75.9657L119.659 75.9578C119.742 75.4531 119.893 74.962 120.109 74.4981C121.866 71.1041 124.302 68.275 126.4 66.3512C127.448 65.3891 128.411 64.6544 129.16 64.1888C129.535 63.9559 129.854 63.7913 130.104 63.6991C130.228 63.6529 130.334 63.6256 130.418 63.6162C130.504 63.6068 130.562 63.6163 130.599 63.6369C130.653 63.6699 130.688 63.7254 130.7 63.8107C130.712 63.8979 130.701 64.0128 130.664 64.1552C130.591 64.4396 130.423 64.8179 130.182 65.2706C129.701 66.1751 128.936 67.3633 128.084 68.6674C126.292 71.3882 124.948 74.3782 124.103 77.5237L124.103 77.5237L124.103 77.5262C123.932 78.3235 123.902 79.0982 124.075 79.6765C124.162 79.9663 124.302 80.2095 124.502 80.3804C124.704 80.5517 124.964 80.6472 125.286 80.6474C125.489 80.6551 125.691 80.6146 125.876 80.5294Z" fill="#8A4C51" stroke="#8A4C51" stroke-width="0.1"/>
<path d="M170.819 63.7069C170.592 64.2737 171.387 64.6137 171.728 63.8202C172 63.0488 172.076 62.222 171.95 61.4139C171.823 60.6058 171.498 59.8416 171.003 59.19C170.508 58.5384 169.858 58.0196 169.113 57.6802C168.367 57.3409 167.549 57.1915 166.732 57.2455L170.819 63.7069ZM170.819 63.7069C171.112 63.0357 171.231 62.302 171.166 61.5729C171.101 60.8437 170.854 60.1426 170.447 59.5335C170.041 58.9244 169.487 58.427 168.838 58.0867C168.189 57.7464 167.465 57.5741 166.732 57.5856L170.819 63.7069ZM169.133 57.6347C168.381 57.2921 167.555 57.1412 166.729 57.1955C163.871 57.253 161.702 58.8236 159.838 61.0249C158.432 62.6853 157.196 64.7105 155.967 66.7233C155.568 67.3771 155.17 68.0296 154.767 68.6679L154.766 68.6686C152.213 72.8611 150.031 75.5759 148.036 77.1859C146.043 78.7942 144.24 79.2985 142.439 79.074C141.319 78.906 140.545 78.3217 140.31 77.3266C140.073 76.325 140.378 74.8937 141.454 73.0272L141.454 73.0267C141.685 72.6158 141.964 72.1373 142.267 71.6169C143.007 70.3463 143.893 68.8256 144.578 67.4272C145.061 66.4416 145.447 65.5127 145.611 64.7716C145.693 64.4012 145.721 64.0739 145.676 63.8081C145.631 63.541 145.511 63.3327 145.296 63.21L145.295 63.2095C144.966 63.0305 144.511 63.0267 143.97 63.1733C143.428 63.3203 142.792 63.6205 142.094 64.0614C140.785 64.8881 139.253 66.2132 137.708 67.9657C139.414 64.8838 141.268 61.8858 143.263 58.9821C144.453 58.1896 145.56 57.3682 146.412 56.6026C146.839 56.2189 147.203 55.8485 147.482 55.5021C147.76 55.1569 147.956 54.8328 148.044 54.5409C148.219 54.0721 148.131 53.6033 147.926 53.2661C147.722 52.932 147.392 52.7129 147.078 52.7755L147.078 52.7743L147.068 52.7789C145.722 53.379 144.261 54.7542 142.795 56.5407C141.327 58.3287 139.85 60.5343 138.473 62.8024C135.718 67.3388 133.361 72.13 132.282 74.3406L132.281 74.3401L132.279 74.3503C132.261 74.4216 132.275 74.4957 132.308 74.5663C132.342 74.6369 132.396 74.707 132.462 74.7734C132.595 74.9062 132.785 75.0299 132.989 75.1169C133.192 75.2039 133.413 75.2563 133.608 75.2413C133.805 75.2262 133.979 75.1418 134.074 74.9527C134.642 73.9326 135.436 72.46 136.344 70.6478C137.987 68.3858 139.828 66.5481 141.343 65.3185C142.101 64.7034 142.776 64.2413 143.303 63.9545C143.566 63.811 143.791 63.7123 143.97 63.6599C144.059 63.6337 144.136 63.6195 144.199 63.6165C144.262 63.6136 144.308 63.6222 144.341 63.6383C144.443 63.6896 144.497 63.7565 144.516 63.8419C144.536 63.931 144.52 64.0481 144.463 64.2015C144.35 64.5085 144.088 64.9321 143.711 65.5074C143.624 65.6395 143.532 65.7794 143.434 65.9274C142.682 67.0643 141.614 68.6797 140.458 70.939C139.148 73.4965 138.944 75.6371 139.504 77.157C140.066 78.6801 141.391 79.5696 143.112 79.6269C144.831 79.6841 146.659 79.0258 148.667 77.3482C150.674 75.6711 152.864 72.9737 155.306 68.9473L155.306 68.9467C155.463 68.6813 155.618 68.4166 155.773 68.1532C157.304 65.5461 158.763 63.0614 160.397 61.1606C162.195 59.0688 164.198 57.6919 166.733 57.6356C167.457 57.6242 168.173 57.7945 168.815 58.131C169.457 58.4674 170.004 58.9592 170.406 59.5613C170.808 60.1634 171.052 60.8565 171.116 61.5773C171.181 62.2981 171.063 63.0234 170.773 63.6869L170.773 63.6883C170.711 63.8414 170.718 63.9837 170.772 64.097C170.827 64.2099 170.928 64.2901 171.048 64.322C171.291 64.3869 171.597 64.2523 171.774 63.84L171.774 63.84L171.775 63.8369C172.05 63.0577 172.127 62.2225 171.999 61.4062C171.871 60.5898 171.543 59.818 171.043 59.1597C170.542 58.5015 169.886 57.9775 169.133 57.6347ZM147.007 55.3964L147.007 55.3965C146.099 56.3076 145.107 57.1312 144.045 57.8566C145.033 56.3928 146.245 55.0917 147.637 54.0007C147.688 53.9762 147.722 53.9707 147.743 53.9734C147.76 53.9757 147.771 53.9837 147.78 54.0021C147.789 54.0235 147.795 54.0591 147.79 54.111C147.785 54.1621 147.771 54.2246 147.747 54.2966C147.651 54.5853 147.4 55.0039 147.007 55.3964Z" fill="#8A4C51" stroke="#8A4C51" stroke-width="0.1"/>
<path d="M50.3401 16.3529L50.3495 16.3907C50.4675 16.8617 50.2635 17.2332 49.9762 17.3288C49.8318 17.3769 49.6719 17.352 49.5347 17.2385C49.3987 17.126 49.2883 16.9298 49.2301 16.6394C49.1172 16.076 48.9493 15.662 48.6894 15.3888C48.4314 15.1177 48.0769 14.9792 47.5759 14.9792C46.8755 14.9792 45.9172 15.2175 44.7689 15.6439C43.6217 16.0698 42.2895 16.6817 40.8428 17.4251C37.964 18.9043 34.635 20.9027 31.4149 22.9879C31.603 23.2088 31.7563 23.5337 31.8824 23.9392C32.0175 24.3737 32.1226 24.9054 32.2045 25.5108C32.3681 26.7218 32.4391 28.2332 32.4675 29.8632C32.492 31.2682 32.4848 32.7603 32.4778 34.2257C32.4686 36.1647 32.4595 38.057 32.5242 39.6391L32.5242 39.6396C32.6945 45.079 33.4324 48.5262 34.6043 50.6124C35.1896 51.6544 35.8825 52.3555 36.6663 52.7967C37.4502 53.2378 38.3283 53.4208 39.287 53.4208H39.2889V53.4208C39.9705 53.446 40.6403 53.2389 41.1884 52.8336C41.7364 52.4284 42.13 51.849 42.3045 51.1908L42.305 51.1886C42.3733 50.9714 42.3919 50.7416 42.3596 50.5162C42.3273 50.2909 42.2449 50.0755 42.1184 49.8861C41.9919 49.6966 41.8245 49.5378 41.6285 49.4214C41.4331 49.3053 41.2142 49.2341 40.9879 49.2132C40.8851 49.2126 40.7867 49.1716 40.714 49.099C40.6408 49.0258 40.5996 48.9266 40.5996 48.8231C40.5996 48.7196 40.6408 48.6204 40.714 48.5473C40.7873 48.4741 40.8867 48.4331 40.9902 48.4331H40.9944L40.9944 48.4332C41.3016 48.4589 41.5989 48.5543 41.8636 48.7121C42.1283 48.8699 42.3535 49.0859 42.5219 49.3438C42.6904 49.6016 42.7976 49.8944 42.8355 50.1999C42.8734 50.5049 42.8411 50.8144 42.7412 51.105C42.53 51.8731 42.0591 52.5446 41.4085 53.0056C40.7579 53.4666 39.9676 53.6886 39.1718 53.6341C36.9364 53.6335 34.8789 52.3449 33.354 49.8267C31.8294 47.3088 30.8348 43.5586 30.7211 38.6224M50.3401 16.3529L30.7711 38.6209M50.3401 16.3529H50.301H50.2246C50.0407 15.7571 49.6591 15.2412 49.1421 14.8902C48.6154 14.5327 47.9808 14.3685 47.3466 14.4258C46.6002 14.4263 45.6224 14.6552 44.4811 15.0592C43.3377 15.464 42.0263 16.0459 40.613 16.7549C37.833 18.1496 34.6555 20.0375 31.5801 22.0411C32.7974 19.6202 34.0121 17.4202 35.1188 15.6509C36.0631 15.326 36.9731 14.909 37.8355 14.406C38.4631 14.0642 38.9428 13.7 39.2735 13.3537C39.6031 13.0086 39.7892 12.6764 39.8193 12.3982C39.8345 12.2581 39.8101 12.1303 39.7427 12.0233C39.6754 11.9163 39.5681 11.8345 39.4252 11.781C39.1414 11.6748 38.7108 11.6775 38.1395 11.8201L38.1393 11.8195L38.1325 11.8224C36.2231 12.6102 34.5963 13.9547 33.4645 15.6799C30.1618 16.6399 26.7029 16.9457 23.2826 16.5799C19.3812 16.1283 17.5895 14.0155 17.3939 12.1185C17.296 11.1686 17.597 10.2703 18.2342 9.65148C18.8707 9.03339 19.8478 8.68936 21.1119 8.85735C21.4279 8.91458 21.6697 8.90834 21.8424 8.8615C22.0145 8.81481 22.1255 8.72498 22.1609 8.61012C22.1966 8.49424 22.1494 8.3727 22.0481 8.27735C21.9465 8.18183 21.7871 8.1077 21.5809 8.07829L21.5809 8.07827L21.5794 8.07811C20.0628 7.9067 18.8698 8.31353 18.0681 9.04192C17.2669 9.76996 16.8607 10.8156 16.911 11.9134C17.0118 14.1124 18.9393 16.5071 23.1574 17.0193L23.1583 17.0194C26.5146 17.3659 29.9058 17.0703 33.1504 16.1489C31.5346 18.5407 30.0816 21.0384 28.8013 23.6249C28.1182 24.1361 27.4343 24.6275 26.7655 25.108C25.2384 26.2053 23.7899 27.246 22.6091 28.3381M50.3401 16.3529L22.6091 28.3381M30.7211 38.6224C30.7211 38.6223 30.7211 38.6222 30.7211 38.6221L30.7711 38.6209M30.7211 38.6224C30.7211 38.6224 30.7211 38.6225 30.7211 38.6225L30.7711 38.6209M30.7211 38.6224C30.6081 34.9576 30.804 31.5452 30.9597 28.8326L30.9624 28.7843C31.0405 27.4237 31.1078 26.2417 31.1203 25.2937C31.1315 24.4305 31.097 23.7677 30.9865 23.3418M30.7711 38.6209C30.6582 34.9583 30.8539 31.5478 31.0096 28.8349C31.163 26.162 31.2775 24.1663 31.0198 23.2739C31.0087 23.2965 30.9976 23.3191 30.9865 23.3418M30.9865 23.3418C30.8215 23.6788 30.6551 24.0194 30.4873 24.3629C28.073 29.3049 25.3635 34.8513 22.0538 39.2744C18.4882 44.0395 14.2173 47.5128 8.85662 47.5128C5.89164 47.5128 3.66307 46.4592 2.1764 44.7467C0.690596 43.0352 -0.05 40.6704 -0.05 38.0542V38.0531H-0.0499879C0.0411182 33.9166 1.71158 29.9711 4.61981 27.0234L4.62327 27.0199L4.62342 27.0201L5.30295 26.4547M30.9865 23.3418C30.98 23.3168 30.9733 23.2927 30.9663 23.2694C30.7933 23.6226 30.6188 23.9798 30.4428 24.3401C25.4264 34.6086 19.1467 47.4628 8.85662 47.4628C2.95221 47.4628 0 43.2686 0 38.0542L5.30295 26.4547M5.30295 26.4547L5.3047 26.4533L5.33668 26.4917M5.30295 26.4547L5.64199 26.1162L5.64443 26.1138L5.64451 26.1139C7.00319 24.9326 8.54049 23.9734 10.1994 23.2718M5.30295 26.4547L5.30135 26.4563L5.33668 26.4917M5.30295 26.4547L4.6554 27.0585L5.33668 26.4917M22.6091 28.3381C21.4358 26.1993 18.4799 25.542 15.7654 26.5582L15.7644 26.5586C15.6126 26.6192 15.5163 26.7125 15.4693 26.8186C15.4225 26.9243 15.4268 27.0378 15.4671 27.1344C15.5074 27.2308 15.5841 27.3119 15.6842 27.3528C15.7846 27.3937 15.9049 27.3926 16.0294 27.3314C18.6137 26.435 21.173 26.8828 22.1909 28.6339C20.8426 29.7583 19.7993 30.8019 19.1335 31.806C18.4625 32.818 18.1725 33.7937 18.3448 34.7731C18.3657 35.0383 18.4496 35.2947 18.5897 35.521C18.7302 35.748 18.9232 35.9381 19.1524 36.0754C19.3815 36.2127 19.6403 36.2932 19.9071 36.3101C20.1736 36.3271 20.4404 36.2801 20.6851 36.1731C22.073 35.5954 23.5547 33.6441 23.2134 30.1165C23.2083 29.6492 23.0962 29.1895 22.886 28.7724C24.5374 27.4543 26.4013 26.0309 28.4779 24.6048C28.1662 25.2077 27.8525 25.8187 27.5363 26.4345C25.2294 30.9272 22.788 35.6818 20.0147 39.4842C16.823 43.8601 13.2026 46.9594 8.85662 46.9594C6.43231 46.9594 4.63047 45.891 3.43298 44.2032C2.23419 42.5136 1.63965 40.2008 1.63965 37.7141C1.63849 33.5063 3.25978 29.4596 6.16725 26.4133C6.16739 26.4132 6.16753 26.413 6.16767 26.4129L6.6203 25.961C7.72612 24.9429 8.98545 24.1047 10.3521 23.4772C11.0848 23.196 11.7584 23.0847 12.2602 23.1126C12.5116 23.1265 12.7167 23.1752 12.8644 23.2522C13.0095 23.3279 13.0956 23.4289 13.1214 23.5495V23.6578V23.6776L13.135 23.6921C13.2133 23.775 13.3154 23.8316 13.4273 23.8539C13.5387 23.8762 13.6543 23.8634 13.7581 23.8174C13.8082 23.7985 13.8531 23.7678 13.8889 23.7278C13.9251 23.6875 13.9508 23.6389 13.964 23.5864C13.9771 23.5339 13.9773 23.4789 13.9644 23.4263C13.9516 23.3741 13.9264 23.3258 13.8909 23.2855C13.8906 23.2852 13.8903 23.2848 13.8901 23.2845L13.8527 23.3177M22.6091 28.3381L10.1994 23.2718M13.8527 23.3177C13.3985 22.7509 12.0359 22.5242 10.2192 23.3177M13.8527 23.3177C13.8832 23.3521 13.9049 23.3935 13.9158 23.4382C13.9268 23.4829 13.9267 23.5296 13.9155 23.5743C13.9043 23.6189 13.8824 23.6602 13.8517 23.6945C13.8209 23.7288 13.7823 23.7551 13.7391 23.7711M13.8527 23.3177L13.7391 23.7711M10.2192 23.3177L10.1997 23.2716C10.1996 23.2717 10.1995 23.2717 10.1994 23.2718M10.2192 23.3177L10.1992 23.2719C10.1992 23.2718 10.1993 23.2718 10.1994 23.2718M10.2192 23.3177C8.56499 24.0173 7.03209 24.9738 5.67732 26.1516L5.33668 26.4917M13.1714 23.6578V23.5444C13.0578 22.9776 11.8088 22.8643 10.3327 23.431C8.96041 24.061 7.69594 24.9026 6.58569 25.9249L6.1315 26.3783C3.2149 29.434 1.58848 33.4933 1.58965 37.7141C1.58965 42.7018 3.97412 47.0094 8.85662 47.0094C17.0279 47.0094 22.6205 36.1177 27.581 26.457C27.9117 25.813 28.2395 25.1745 28.5652 24.545L13.1714 23.6578ZM13.1714 23.6578C13.2425 23.7332 13.3354 23.7846 13.4371 23.8049C13.5389 23.8252 13.6444 23.8134 13.7391 23.7711M13.1714 23.6578L13.7391 23.7711M22.8228 28.7589C24.503 27.4169 26.4043 25.9646 28.5265 24.5109L15.7829 26.6051C15.2152 26.8318 15.5559 27.5119 16.01 27.2852C18.6216 26.3783 21.2332 26.8318 22.2551 28.6455C19.53 30.9126 18.0539 32.8397 18.3945 34.7668C18.4144 35.0249 18.4959 35.2745 18.6322 35.4947C18.7685 35.7149 18.9557 35.8993 19.178 36.0325C19.4004 36.1657 19.6515 36.2438 19.9102 36.2602C20.169 36.2767 20.428 36.231 20.6654 36.1271C22.028 35.5603 23.5041 33.6332 23.1635 30.1191C23.1586 29.6453 23.0419 29.1793 22.8228 28.7589ZM37.0514 13.3776L37.0516 13.3777L37.0543 13.3745C37.3271 13.0509 37.6693 12.7928 38.0556 12.6193C38.4419 12.4458 38.8623 12.3612 39.2858 12.372H39.287C39.363 12.372 39.3979 12.3953 39.4129 12.422C39.4297 12.452 39.4334 12.5058 39.4032 12.5904C39.3434 12.7578 39.1661 13.0026 38.8556 13.2915C38.2584 13.847 37.1852 14.5501 35.5833 15.1575C35.7444 14.9595 35.8973 14.7622 36.047 14.5688C36.1188 14.4762 36.1898 14.3845 36.2606 14.2941C36.5158 13.9686 36.7698 13.6588 37.0514 13.3776ZM22.6593 30.4581L22.6589 30.4581L22.6595 30.4644C22.9986 33.7363 21.7557 35.2992 20.5312 35.8548L20.5311 35.8545L20.5257 35.8578C20.3522 35.9643 20.1533 36.0226 19.9496 36.0265C19.7459 36.0305 19.5449 35.98 19.3673 35.8803C19.1898 35.7806 19.0422 35.6353 18.9398 35.4595C18.8375 35.2837 18.7841 35.0838 18.7851 34.8804L18.7856 34.8804L18.7848 34.8739C18.6732 33.9828 18.9512 33.1164 19.5714 32.2018C20.1846 31.2974 21.1301 30.3494 22.3564 29.2889C22.5636 29.6428 22.6687 30.0475 22.6593 30.4581Z" fill="#8A4C51" stroke="#8A4C51" stroke-width="0.1"/>
<path d="M37.0162 44.4522V44.4522L37.0185 44.4521C37.6275 44.4232 38.3745 44.1131 39.1856 43.6123C39.9981 43.1106 40.8807 42.4141 41.7621 41.6051C43.525 39.9871 45.2879 37.915 46.4827 36.0406L46.484 36.0414L46.4879 36.0296C46.5502 35.8429 46.4912 35.6998 46.3777 35.6431C46.2676 35.5882 46.1256 35.6271 46.0564 35.7621C45.0364 37.3458 43.4215 39.3821 41.722 41.0222C40.8719 41.8426 40.0018 42.5627 39.1755 43.0774C38.3481 43.5928 37.57 43.8988 36.9026 43.8988C36.6125 43.8988 36.427 43.823 36.3175 43.6962C36.2073 43.5687 36.1643 43.3787 36.1842 43.1291C36.2241 42.6285 36.5139 41.9247 36.9327 41.1238C37.3505 40.3251 37.8924 39.4374 38.4301 38.5712C38.5106 38.4415 38.591 38.3123 38.6708 38.1839C39.1239 37.4558 39.5599 36.7551 39.8983 36.1518C40.1298 35.7473 40.1774 35.4003 40.098 35.1266C40.0184 34.8524 39.8139 34.661 39.5604 34.5642C39.0553 34.3714 38.3473 34.55 37.9942 35.1963L37.9941 35.1962L37.9928 35.1991C37.8973 35.4034 37.7968 35.6164 37.693 35.8364C36.9345 37.4445 36.001 39.4235 35.5627 41.0737C35.3139 42.0103 35.2216 42.8514 35.4198 43.4612C35.5194 43.7679 35.6929 44.0171 35.957 44.189C36.2204 44.3605 36.5696 44.4522 37.0162 44.4522ZM40.9456 31.117C40.8827 31.2425 40.882 31.3696 40.9145 31.4669C40.9307 31.5154 40.9556 31.558 40.9869 31.5892C41.018 31.6202 41.0583 31.6428 41.1038 31.6428C41.146 31.6428 41.1876 31.6248 41.2254 31.6006C41.264 31.576 41.3037 31.5419 41.3432 31.5024C41.4222 31.4235 41.5056 31.3183 41.5841 31.2115C41.652 31.119 41.7173 31.0239 41.7737 30.9417C41.7826 30.9287 41.7913 30.9161 41.7997 30.9038C41.8308 30.8586 41.8583 30.8188 41.8816 30.7869C41.9054 30.7542 41.9229 30.7324 41.934 30.7213C41.9646 30.6908 41.9912 30.6568 42.0054 30.6213C42.0202 30.5844 42.023 30.5412 41.997 30.5023C41.973 30.4663 41.9307 30.4441 41.8797 30.4304C41.8277 30.4164 41.7589 30.4092 41.6716 30.4092C41.4779 30.4092 41.3231 30.5378 41.2067 30.683C41.0899 30.8289 41.0028 31.0027 40.9463 31.1156L40.9456 31.117Z" fill="#8A4C51" stroke="#8A4C51" stroke-width="0.1"/>
<path d="M50.4354 48.5284L50.4354 48.5285L50.4374 48.5274C51.2117 48.1266 52.1107 47.3349 53.0536 46.328C53.9974 45.3201 54.9886 44.0929 55.9472 42.8168C57.8643 40.265 59.6533 37.515 60.6753 35.9278C60.7365 35.8361 60.7573 35.7513 60.7409 35.6785C60.7242 35.605 60.6719 35.5547 60.6106 35.5285C60.4932 35.4782 60.3203 35.5087 60.2487 35.6503C59.6251 36.782 57.5264 40.0665 55.3138 42.9833C54.2073 44.4421 53.0736 45.8071 52.0828 46.7644C51.5873 47.2433 51.1293 47.6183 50.7298 47.8523C50.3288 48.0871 49.9981 48.1731 49.7499 48.0958C49.6238 48.0449 49.5419 47.9527 49.4978 47.8195C49.4527 47.6834 49.4469 47.5036 49.4792 47.2823C49.5438 46.8398 49.7576 46.2501 50.0766 45.5566C50.714 44.1709 51.7628 42.3879 52.8418 40.5736L52.842 40.5732C52.948 40.3919 53.0544 40.21 53.161 40.0281C54.2522 38.1638 55.3526 36.2839 56.0521 34.745C56.4357 33.9008 56.7009 33.1549 56.7764 32.568C56.8517 31.9827 56.7399 31.5357 56.3425 31.322C55.9538 31.1131 55.3683 31.1549 54.6627 31.4057C53.9542 31.6576 53.1125 32.1244 52.2018 32.7851C50.5308 33.9971 48.6221 35.8652 46.8697 38.2686C47.1136 37.8095 47.3629 37.3307 47.6276 36.8225C47.9706 36.1637 48.3394 35.4555 48.7553 34.677L48.7556 34.6771L48.7576 34.672C48.8243 34.5054 48.7545 34.3161 48.6288 34.1487C48.5013 33.9791 48.3074 33.8189 48.0966 33.7028C47.8863 33.5869 47.6536 33.5119 47.4479 33.5195C47.2395 33.5271 47.0572 33.6204 46.9628 33.8384C44.4976 38.5466 43.3474 41.1343 42.4621 43.1259C42.4095 43.2443 42.3579 43.3605 42.3069 43.475L42.3067 43.4749L42.3052 43.4795C42.2836 43.5439 42.3078 43.6105 42.3475 43.6685C42.3878 43.7276 42.4506 43.7877 42.5264 43.8451C42.6785 43.9604 42.8927 44.0724 43.1165 44.1517C43.3399 44.2308 43.5781 44.2792 43.7779 44.2625C43.9786 44.2456 44.1512 44.1609 44.2168 43.9646L44.2174 43.9648L44.2187 43.9568C44.3013 43.4521 44.4526 42.961 44.6684 42.4971C46.4251 39.1031 48.8621 36.274 50.9591 34.3502C52.0078 33.3882 52.9705 32.6534 53.7194 32.1878C54.0941 31.9549 54.4138 31.7903 54.6631 31.6981C54.7878 31.652 54.8932 31.6246 54.9779 31.6152C55.0633 31.6058 55.1217 31.6154 55.1581 31.6359C55.2128 31.6689 55.2472 31.7244 55.2594 31.8097C55.2718 31.8969 55.2601 32.0118 55.2236 32.1542C55.1506 32.4387 54.9827 32.8169 54.7418 33.2696C54.2605 34.1741 53.4954 35.3623 52.6435 36.6664C50.8512 39.3872 49.5073 42.3773 48.6629 45.5228L48.6628 45.5227L48.6623 45.5252C48.4912 46.3225 48.4611 47.0972 48.6349 47.6756C48.722 47.9653 48.8611 48.2085 49.062 48.3794C49.2634 48.5507 49.5233 48.6462 49.8457 48.6464C50.0488 48.6541 50.2509 48.6137 50.4354 48.5284Z" fill="#8A4C51" stroke="#8A4C51" stroke-width="0.1"/>
<path d="M69.8746 34.3379L69.9164 34.2634H69.831H69.6891C69.9826 33.696 69.7469 33.1391 69.3816 32.8165C69.1909 32.6481 68.9607 32.5392 68.7448 32.5259C68.5261 32.5125 68.3222 32.5979 68.198 32.8149L68.2414 32.8398L68.1985 32.814L68.1982 32.8145C67.8774 33.3484 67.5556 33.8837 67.2338 34.5143C67.1524 34.2753 66.9842 34.0818 66.7326 33.9437C66.4388 33.7824 66.0323 33.6967 65.5168 33.6966C64.1985 33.6682 62.77 34.1686 61.442 34.963C60.1132 35.7579 58.881 36.8494 57.9548 38.0088C57.0293 39.1672 56.4054 40.3985 56.3012 41.4731C56.249 42.0113 56.327 42.5121 56.5649 42.9441C56.8028 43.3763 57.1985 43.7355 57.7744 43.9943C58.1565 44.1703 58.6014 44.1833 59.0874 44.0701C59.5733 43.9569 60.1035 43.7169 60.6596 43.3823C61.6927 42.7609 62.8223 41.8091 63.9342 40.7219C63.5647 41.3858 63.2693 41.9757 62.9743 42.5647C62.5773 43.244 62.152 43.9517 61.7265 44.6597L61.7264 44.6599L61.7263 44.6601C61.3059 45.3595 60.8853 46.0593 60.492 46.7319C56.7426 46.6242 52.2357 47.5889 48.6195 49.2596C46.8064 50.0971 45.2149 51.1132 44.0545 52.2628C42.8943 53.4122 42.162 54.6983 42.0758 56.0749H42.0758L42.0758 56.0754C42.0173 57.1854 42.8955 58.1063 44.3103 58.5628C45.7276 59.0202 47.6975 59.0188 49.863 58.2792C54.1878 56.8021 58.3908 52.3798 62.0214 47.1743C64.0556 47.2872 65.9725 47.4004 67.439 47.6257L67.4389 47.6262H67.4466C67.5864 47.6262 67.6875 47.5225 67.7211 47.422C67.738 47.3715 67.7407 47.3133 67.7138 47.265C67.6857 47.2145 67.6323 47.1872 67.5641 47.1862C66.1077 46.9628 64.3215 46.8494 62.4249 46.7378C62.809 46.1365 63.2183 45.5099 63.6278 44.883L63.6279 44.8829C64.0537 44.2312 64.4796 43.5792 64.8772 42.9555L64.878 42.954C66.3542 40.4601 68.2847 37.1723 69.8746 34.3379ZM49.2622 57.9581L49.262 57.9582C47.5675 58.5784 45.9042 58.6054 44.6816 58.2126C43.458 57.8194 42.6885 57.0123 42.7434 55.9678C42.8274 54.7666 43.5205 53.6158 44.6333 52.5631C45.7457 51.5106 47.2734 50.5605 49.0161 49.7613C52.4718 48.1766 56.7634 47.1898 60.3147 47.173C57.0343 52.2396 53.3123 56.498 49.2622 57.9581ZM66.7193 34.5504C66.9437 34.7349 67.0528 34.9979 67.0559 35.3199C66.6034 36.0738 66.1505 36.9278 65.6983 37.7805C65.4722 38.2068 65.2464 38.6328 65.0208 39.0457C63.7736 40.4772 62.4442 41.8035 61.301 42.5884C60.7282 42.9816 60.207 43.2354 59.7694 43.3019C59.5512 43.3351 59.3558 43.3214 59.1853 43.2569C59.0157 43.1928 58.8677 43.0773 58.7454 42.9012C58.5974 42.6586 58.5464 42.3434 58.5805 41.9723C58.6147 41.6008 58.734 41.1772 58.9218 40.723C59.2973 39.8148 59.9437 38.7916 60.7154 37.8305C61.4868 36.8695 62.3816 35.9728 63.2524 35.3169C64.1253 34.6593 64.9657 34.2501 65.6298 34.2501C66.1343 34.2501 66.4903 34.3621 66.7193 34.5504Z" fill="#8A4C51" stroke="#8A4C51" stroke-width="0.1"/>
<path d="M60.4183 5.57715C61.0314 5.45246 61.883 5.32777 62.2236 6.10993C62.2945 6.26068 62.3313 6.42517 62.3313 6.5917C62.3313 6.75824 62.2945 6.92273 62.2236 7.07347C62.0298 7.40419 61.7297 7.65984 61.3721 7.79896C61.0843 7.95589 60.7548 8.01947 60.4292 7.98087C60.1037 7.94227 59.7982 7.80341 59.5553 7.58358L59.9641 7.03946C60.1111 7.1839 60.3002 7.27814 60.5041 7.30869C60.7081 7.33923 60.9165 7.30451 61.0995 7.2095C61.5197 7.02813 61.7581 6.7334 61.5991 6.39333C61.4402 6.05325 61.0882 6.08726 60.6454 6.17795C59.9981 6.26863 59.1806 6.416 58.84 5.64517C58.767 5.49905 58.729 5.33801 58.729 5.17473C58.729 5.01146 58.767 4.85042 58.84 4.7043C58.9533 4.49188 59.1117 4.30669 59.304 4.16164C59.4964 4.01659 59.7181 3.91517 59.9538 3.86444C60.1894 3.81372 60.4333 3.81492 60.6685 3.86796C60.9036 3.92099 61.1244 4.02459 61.3153 4.17152L60.9179 4.7043C60.7892 4.56511 60.6177 4.47279 60.4305 4.44198C60.2433 4.41118 60.0512 4.44366 59.8846 4.53426C59.5326 4.69297 59.3169 4.99903 59.4531 5.3051C59.5894 5.61116 59.9641 5.66784 60.4183 5.57715Z" fill="#8A4C51"/>
<path d="M67.4921 1.42832L68.128 1.24695L69.2634 5.0671L68.6049 5.24847L68.4232 4.59099C68.3326 4.87061 68.171 5.12201 67.9541 5.32068C67.7372 5.51935 67.4724 5.6585 67.1855 5.72457C66.9291 5.79761 66.6603 5.81618 66.3962 5.77909C66.1322 5.74199 65.8789 5.65005 65.6527 5.50919C65.4155 5.37204 65.208 5.18916 65.0423 4.97119C64.8766 4.75323 64.756 4.50453 64.6875 4.23959C64.6116 3.97805 64.5885 3.70404 64.6197 3.43352C64.6509 3.163 64.7357 2.90138 64.8692 2.66392C64.991 2.42807 65.1611 2.22042 65.3684 2.05442C65.5757 1.88843 65.8157 1.76781 66.0728 1.70038C66.3562 1.60611 66.6599 1.59005 66.9517 1.65391C67.2435 1.71776 67.5126 1.85915 67.7306 2.06312L67.4921 1.42832ZM67.9009 4.42096C67.9979 4.25046 68.0591 4.06197 68.0806 3.86704C68.102 3.67212 68.0834 3.47486 68.0258 3.28738C67.9293 2.92444 67.6924 2.61457 67.3672 2.42587C67.2048 2.33297 67.0257 2.27305 66.84 2.24956C66.6543 2.22606 66.4658 2.23946 66.2854 2.28898C66.1049 2.3385 65.936 2.42316 65.7885 2.53809C65.6409 2.65302 65.5176 2.79594 65.4256 2.95865C65.3238 3.12731 65.26 3.31602 65.2384 3.51174C65.2168 3.70745 65.2381 3.90551 65.3007 4.09222C65.3735 4.36283 65.5251 4.6058 65.7363 4.79042C65.9474 4.97503 66.2087 5.09299 66.487 5.12939C66.7653 5.16579 67.0482 5.11899 67.2998 4.99491C67.5515 4.87083 67.7607 4.67504 67.9009 4.43229V4.42096Z" fill="#8A4C51"/>
<path d="M74.691 0.226689L75.4404 0.147339L74.305 4.27355L73.4988 4.36424L71.4663 0.600769L72.2157 0.510083L73.8054 3.58207L74.691 0.226689Z" fill="#8A4C51"/>
<path d="M79.2101 2.35785C79.2627 2.68509 79.4342 2.98152 79.6918 3.1906C79.9494 3.39968 80.2751 3.50676 80.6067 3.49143C80.8274 3.51049 81.0492 3.47006 81.2489 3.37435C81.4487 3.27864 81.619 3.13116 81.7421 2.94731L82.3212 3.29872C82.1355 3.57716 81.8815 3.80354 81.5834 3.95632C81.2852 4.1091 80.9529 4.1832 80.618 4.17157C80.3339 4.17158 80.0527 4.11436 79.7913 4.00333C79.5299 3.89231 79.2936 3.72977 79.0965 3.52544C78.909 3.32161 78.765 3.08183 78.6733 2.8207C78.5816 2.55957 78.544 2.28253 78.5628 2.00645C78.5571 1.7365 78.6053 1.46811 78.7047 1.21701C78.8042 0.965913 78.9528 0.737153 79.1419 0.544135C79.3379 0.357887 79.5699 0.213557 79.8237 0.119994C80.0776 0.0264307 80.3478 -0.0143952 80.618 1.88125e-05C80.8855 0.00339968 81.1491 0.064993 81.3903 0.180504C81.6315 0.296015 81.8446 0.462663 82.0147 0.668828C82.372 1.08248 82.5516 1.62016 82.5143 2.16515C82.5254 2.26686 82.5254 2.36949 82.5143 2.47121L79.2101 2.35785ZM79.2101 1.75706L81.867 1.84775C81.8525 1.5259 81.7149 1.22188 81.4825 0.998333C81.2501 0.774782 80.9407 0.648732 80.618 0.646156C80.2886 0.624992 79.9631 0.727036 79.7049 0.932405C79.4467 1.13777 79.2743 1.43175 79.2214 1.75706H79.2101Z" fill="#8A4C51"/>
<path d="M92.5971 2.74326L91.5752 2.45987L90.9961 4.53431C90.8372 5.12377 91.1891 5.16911 91.8818 5.32781L91.7115 5.91727C90.5079 5.74723 90.0764 5.2938 90.3376 4.35294L90.9053 2.26716L90.1445 2.05178L90.3262 1.41698L91.087 1.62102L91.3254 0.748169H92.0407L91.7455 1.81373L92.7674 2.09712L92.5971 2.74326Z" fill="#8A4C51"/>
<path d="M98.7857 6.03065L97.8205 8.2978L97.1847 8.02574L98.1385 5.82661C98.2002 5.71127 98.2365 5.5841 98.245 5.45361C98.2535 5.32313 98.234 5.19233 98.1877 5.06999C98.1415 4.94764 98.0697 4.83656 97.977 4.74418C97.8843 4.6518 97.7729 4.58026 97.6502 4.53433C97.4989 4.46423 97.334 4.42826 97.1672 4.42899C97.0004 4.42972 96.8358 4.46713 96.6852 4.53855C96.5345 4.60998 96.4014 4.71366 96.2954 4.84224C96.1895 4.97082 96.1131 5.12113 96.0719 5.28249L95.243 7.22091L94.6072 6.94885L96.7986 1.83643L97.4345 2.10848L96.5829 4.09224C96.7917 3.94273 97.0375 3.85313 97.2937 3.83315C97.5499 3.81317 97.8067 3.86357 98.0363 3.97888C98.226 4.05784 98.3973 4.1752 98.5393 4.32355C98.6813 4.4719 98.791 4.64802 98.8614 4.84081C98.9318 5.03359 98.9614 5.23886 98.9484 5.44365C98.9354 5.64844 98.88 5.84831 98.7857 6.03065Z" fill="#8A4C51"/>
<path d="M101.908 8.56981C101.779 8.88143 101.771 9.22998 101.887 9.5468C102.002 9.86362 102.233 10.1257 102.532 10.2815C102.714 10.4174 102.931 10.4999 103.158 10.5199C103.384 10.5399 103.612 10.4966 103.815 10.3949L104.133 10.9957C103.823 11.1396 103.48 11.1996 103.14 11.1697C102.799 11.1399 102.472 11.0212 102.191 10.8256C101.947 10.6842 101.733 10.4948 101.563 10.2688C101.393 10.0428 101.271 9.78498 101.204 9.51068C101.14 9.24331 101.131 8.96577 101.178 8.69492C101.225 8.42406 101.326 8.16553 101.476 7.93501C101.614 7.69666 101.799 7.48852 102.02 7.32298C102.24 7.15744 102.491 7.0379 102.759 6.97147C103.03 6.90873 103.311 6.90252 103.585 6.95323C103.858 7.00395 104.118 7.11049 104.349 7.2662C104.578 7.40138 104.776 7.58507 104.927 7.80438C105.078 8.0237 105.179 8.27334 105.223 8.53581C105.326 9.07357 105.216 9.63008 104.917 10.0888C104.862 10.1792 104.798 10.2629 104.724 10.3382L101.908 8.56981ZM102.191 8.05971L104.462 9.46534C104.611 9.18118 104.645 8.85065 104.556 8.54244C104.467 8.23422 104.263 7.97202 103.985 7.81032C103.71 7.6176 103.372 7.53617 103.039 7.58245C102.706 7.62873 102.403 7.79927 102.191 8.05971Z" fill="#8A4C51"/>
<path d="M115.749 14.9292L116.226 15.428L112.173 19.2708L111.696 18.7721L112.195 18.3073C111.903 18.3611 111.602 18.3383 111.321 18.2409C111.041 18.1435 110.79 17.975 110.594 17.7518C110.407 17.5612 110.262 17.3337 110.168 17.0838C110.074 16.834 110.034 16.5673 110.049 16.3009C110.079 15.7505 110.324 15.2338 110.731 14.8612C110.925 14.6695 111.155 14.5186 111.409 14.4173C111.662 14.3161 111.934 14.2666 112.207 14.2718C112.475 14.2662 112.742 14.3179 112.988 14.4235C113.235 14.5291 113.456 14.686 113.637 14.8839C113.852 15.0906 114.008 15.3511 114.088 15.6381C114.168 15.9252 114.169 16.2285 114.092 16.5162L115.749 14.9292ZM112.127 17.7745C112.416 17.7993 112.705 17.7352 112.957 17.5909C113.208 17.4465 113.409 17.2289 113.532 16.9672C113.656 16.7056 113.696 16.4124 113.648 16.1271C113.6 15.8418 113.465 15.5781 113.263 15.3713C113.133 15.2383 112.977 15.1327 112.806 15.0605C112.634 14.9884 112.45 14.9512 112.263 14.9512C112.077 14.9512 111.893 14.9884 111.721 15.0605C111.55 15.1327 111.394 15.2383 111.264 15.3713C111.125 15.4965 111.012 15.6482 110.932 15.8175C110.852 15.9869 110.807 16.1705 110.799 16.3575C110.795 16.7328 110.938 17.0948 111.196 17.3675C111.454 17.6401 111.808 17.8023 112.184 17.8199L112.127 17.7745Z" fill="#8A4C51"/>
<path d="M119.315 22.2747L119.701 22.8415L116.408 25.1087L116.022 24.5305L116.59 24.1451C116.291 24.154 115.995 24.0843 115.732 23.943C115.469 23.8017 115.248 23.5939 115.091 23.3403C114.939 23.1233 114.836 22.8767 114.787 22.6169C114.738 22.357 114.745 22.0897 114.807 21.8326C114.922 21.2937 115.242 20.8203 115.699 20.5118C116.156 20.2032 116.716 20.0834 117.259 20.1776C117.525 20.2161 117.778 20.3109 118.004 20.4556C118.229 20.6003 118.42 20.7916 118.565 21.0165C118.745 21.2536 118.856 21.5348 118.888 21.8303C118.92 22.1257 118.871 22.4242 118.747 22.6942L119.315 22.2747ZM116.601 23.6124C116.786 23.6457 116.975 23.6419 117.159 23.601C117.342 23.5601 117.515 23.483 117.668 23.3743C117.826 23.2735 117.961 23.1421 118.066 22.9881C118.172 22.8341 118.245 22.6605 118.282 22.4777C118.319 22.2948 118.319 22.1063 118.282 21.9235C118.245 21.7407 118.171 21.5671 118.066 21.4132C117.964 21.2556 117.831 21.1208 117.675 21.0174C117.518 20.9139 117.342 20.8441 117.157 20.8124C116.881 20.7595 116.595 20.7891 116.336 20.8974C116.076 21.0057 115.855 21.188 115.698 21.4214C115.542 21.6549 115.458 21.9292 115.457 22.21C115.456 22.4908 115.538 22.7656 115.693 23.0002C115.903 23.3157 116.229 23.5356 116.601 23.6124Z" fill="#8A4C51"/>
<path d="M121.869 28.3394L121.404 27.3872L119.462 28.328C118.917 28.5888 119.11 28.8835 119.462 29.4616L118.906 29.7337C118.224 28.7135 118.292 28.09 119.178 27.6592L121.12 26.7184L120.768 26.0156L121.37 25.7208L121.71 26.435L122.528 26.0382L123.016 26.571L122.017 27.0471L122.482 27.9993L121.869 28.3394Z" fill="#8A4C51"/>
<path d="M121.801 32.579C121.5 32.7327 121.268 32.9947 121.152 33.3123C121.036 33.6298 121.045 33.9793 121.177 34.2907C121.229 34.5089 121.341 34.7087 121.499 34.8685C121.657 35.0282 121.856 35.142 122.074 35.1975L121.937 35.855C121.604 35.7678 121.301 35.5937 121.057 35.3507C120.814 35.1077 120.639 34.8044 120.552 34.472C120.454 34.2067 120.411 33.9245 120.425 33.6421C120.438 33.3597 120.509 33.083 120.632 32.8283C120.76 32.5829 120.937 32.3661 121.152 32.1907C121.366 32.0154 121.614 31.8852 121.881 31.8081C122.141 31.7134 122.418 31.6731 122.695 31.6899C122.972 31.7066 123.242 31.78 123.489 31.9054C123.736 32.0309 123.955 32.2057 124.131 32.4191C124.308 32.6325 124.438 32.8798 124.515 33.1457C124.606 33.3982 124.639 33.6678 124.611 33.9346C124.584 34.2015 124.496 34.4587 124.356 34.6874C124.089 35.1655 123.644 35.5197 123.118 35.6736C123.021 35.7028 122.923 35.7255 122.823 35.7416L121.801 32.579ZM122.369 32.3862L123.186 34.9141C123.481 34.7883 123.717 34.5561 123.848 34.264C123.978 33.9719 123.993 33.6413 123.89 33.3384C123.802 33.0184 123.597 32.7431 123.315 32.5668C123.033 32.3905 122.696 32.3261 122.369 32.3862Z" fill="#8A4C51"/>
<path d="M41.8302 70.905L42.1595 71.4492L37.47 74.3738L37.084 73.7503L41.1376 71.2451L40.2179 70.429L40.6607 69.9302L41.8302 70.905Z" fill="#8A4C51"/>
<path d="M40.8765 79.2594C40.6685 79.0298 40.5219 78.7515 40.4504 78.4503C40.3789 78.149 40.3849 77.8346 40.4678 77.5363C40.6902 76.8318 41.1267 76.2137 41.7168 75.7679C42.2661 75.2488 42.9654 74.9156 43.7152 74.8157C44.0242 74.7884 44.3351 74.8396 44.619 74.9645C44.9029 75.0893 45.1505 75.2838 45.3389 75.5299C45.545 75.7582 45.6896 76.0351 45.7591 76.3345C45.8286 76.6339 45.8208 76.946 45.7363 77.2416C45.4877 77.9347 45.0574 78.5486 44.4902 79.0192C43.923 79.4897 43.2397 79.7997 42.5116 79.9168C42.2056 79.9548 41.8949 79.9144 41.6088 79.7993C41.3228 79.6843 41.0708 79.4985 40.8765 79.2594ZM41.4329 78.7946C42.0006 79.4861 42.9431 79.3727 43.9991 78.4999C45.055 77.627 45.3389 76.7202 44.7598 76.0287C44.1807 75.3372 43.261 75.4505 42.1937 76.3347C41.1263 77.2189 40.8765 78.1031 41.4556 78.7946H41.4329Z" fill="#8A4C51"/>
<path d="M45.01 82.8983C45.1074 82.8041 45.2377 82.7515 45.3733 82.7515C45.5089 82.7515 45.6392 82.8041 45.7367 82.8983C45.7865 82.9459 45.8261 83.0031 45.8532 83.0664C45.8803 83.1298 45.8942 83.1979 45.8942 83.2667C45.8942 83.3356 45.8803 83.4037 45.8532 83.467C45.8261 83.5303 45.7865 83.5875 45.7367 83.6351C45.6392 83.7293 45.5089 83.782 45.3733 83.782C45.2377 83.782 45.1074 83.7293 45.01 83.6351C44.9149 83.536 44.8618 83.404 44.8618 83.2667C44.8618 83.1295 44.9149 82.9975 45.01 82.8983Z" fill="#8A4C51"/>
<path d="M52.5152 82.5809L53.0148 82.9664L49.6084 87.376L49.0293 86.9339L51.9361 83.1477L50.8006 82.7056L51.0504 82.0935L52.5152 82.5809Z" fill="#8A4C51"/>
<path d="M54.6159 90.686C54.3402 90.5463 54.1048 90.3387 53.9319 90.0828C53.7591 89.8269 53.6545 89.5312 53.6281 89.2237C53.6223 88.4894 53.8103 87.7666 54.173 87.1279C54.5358 86.4891 55.0605 85.957 55.6946 85.5849C55.9754 85.4629 56.2807 85.4076 56.5865 85.4236C56.8923 85.4395 57.1902 85.5263 57.4567 85.6769C57.7232 85.8275 57.9509 86.0379 58.122 86.2914C58.2931 86.545 58.4028 86.8348 58.4424 87.1379C58.4956 87.8832 58.3086 88.626 57.9088 89.2577C57.5748 89.9201 57.0432 90.4627 56.3872 90.8107C56.1062 90.944 55.7955 91.0026 55.4852 90.9808C55.1748 90.9589 54.8754 90.8574 54.6159 90.686ZM54.9679 90.0625C55.7514 90.5046 56.5916 90.0625 57.2388 88.9289C57.886 87.7954 57.8633 86.7865 57.0799 86.3444C56.2964 85.9023 55.4789 86.3444 54.8089 87.478C54.139 88.6115 54.1844 89.6431 54.9679 90.0852V90.0625Z" fill="#8A4C51"/>
<path d="M59.7482 92.6583C59.8033 92.5326 59.9049 92.4329 60.0318 92.3801C60.1588 92.3273 60.3012 92.3254 60.4295 92.3749C60.4928 92.4009 60.5502 92.4392 60.5984 92.4878C60.6466 92.5363 60.6845 92.594 60.7099 92.6574C60.7353 92.7208 60.7477 92.7887 60.7464 92.857C60.745 92.9254 60.7299 92.9927 60.702 93.0551C60.6772 93.1179 60.6399 93.175 60.5924 93.223C60.5448 93.271 60.488 93.3089 60.4254 93.3343C60.3627 93.3598 60.2956 93.3722 60.228 93.371C60.1604 93.3698 60.0937 93.3548 60.032 93.3271C59.9069 93.2744 59.8073 93.1751 59.7543 93.0502C59.7013 92.9253 59.6991 92.7848 59.7482 92.6583Z" fill="#8A4C51"/>
<path d="M63.8926 94.6875L64.0515 94.098L66.4814 92.7037C66.99 92.4829 67.3957 92.0778 67.6169 91.5701C67.6581 91.4444 67.6727 91.3115 67.6596 91.1799C67.6465 91.0482 67.6061 90.9207 67.5409 90.8056C67.4758 90.6904 67.3873 90.59 67.2811 90.5109C67.1749 90.4317 67.0534 90.3755 66.9243 90.3459C66.6921 90.2668 66.4405 90.2649 66.2071 90.3405C65.9738 90.4161 65.7713 90.5652 65.6298 90.7653L65.1302 90.2438C65.3675 89.9625 65.6822 89.7567 66.0353 89.6519C66.3885 89.5472 66.7646 89.548 67.1173 89.6544C67.5497 89.772 67.9224 90.047 68.1619 90.4252C68.2935 90.6301 68.3753 90.8629 68.401 91.1049C68.4266 91.347 68.3953 91.5917 68.3095 91.8195C68.0387 92.4844 67.5225 93.02 66.8675 93.3158L65.1189 94.2907L67.5374 94.9709L67.3557 95.6623L63.8926 94.6875Z" fill="#8A4C51"/>
<path d="M72.8854 96.7166C72.5777 96.6891 72.2816 96.5856 72.0239 96.4155C71.7662 96.2453 71.555 96.0138 71.4093 95.7418C71.1209 95.0672 71.0153 94.3288 71.103 93.6006C71.1906 92.8724 71.4686 92.18 71.9089 91.5929C72.1207 91.3724 72.381 91.2041 72.6691 91.1011C72.9573 90.9982 73.2654 90.9635 73.5693 90.9998C73.8731 91.0361 74.1644 91.1423 74.4201 91.3101C74.6758 91.478 74.889 91.7028 75.0428 91.967C75.3644 92.6242 75.4754 93.3643 75.3607 94.0867C75.3015 94.827 75.0161 95.5313 74.5432 96.1045C74.3399 96.3365 74.0817 96.514 73.7922 96.6209C73.5027 96.7278 73.1909 96.7607 72.8854 96.7166ZM72.9649 95.9911C73.8619 96.1045 74.4637 95.3904 74.634 94.0187C74.8043 92.6471 74.3728 91.8196 73.4985 91.7516C72.6242 91.6836 72.0111 92.3524 71.8408 93.7353C71.6704 95.1183 72.0792 95.8891 72.9649 95.9911Z" fill="#8A4C51"/>
<path d="M78.4036 96.9999V96.3538L80.3112 94.302C80.7167 93.9597 80.9798 93.4787 81.0492 92.953C81.0527 92.8217 81.0286 92.691 80.9785 92.5695C80.9283 92.4479 80.8532 92.3383 80.758 92.2475C80.6628 92.1567 80.5496 92.0868 80.4257 92.0424C80.3018 91.998 80.17 91.98 80.0387 91.9895C79.7896 91.9773 79.5435 92.0473 79.3383 92.1887C79.1331 92.3301 78.9802 92.5349 78.9032 92.7717L78.2673 92.4203C78.4152 92.0832 78.6583 91.7965 78.9668 91.5951C79.2754 91.3938 79.636 91.2866 80.0046 91.2867C80.4538 91.2664 80.8934 91.4208 81.2309 91.7174C81.4043 91.8719 81.5411 92.0628 81.6314 92.2765C81.7217 92.4902 81.7633 92.7213 81.7532 92.953C81.7274 93.3098 81.6308 93.6579 81.469 93.9771C81.3072 94.2962 81.0835 94.5801 80.8108 94.8121L79.4823 96.2631L82.003 96.1951V96.9092L78.4036 96.9999Z" fill="#8A4C51"/>
<path d="M87.6237 96.3538C87.3225 96.4232 87.0085 96.4138 86.7121 96.3264C86.4157 96.239 86.1469 96.0766 85.9319 95.855C85.4214 95.3162 85.0954 94.6296 85.0008 93.894C84.8215 93.1586 84.8771 92.3857 85.1597 91.6835C85.3001 91.4108 85.5019 91.1742 85.7493 90.9925C85.9967 90.8107 86.2829 90.6887 86.5854 90.636C86.888 90.5833 87.1987 90.6013 87.4931 90.6886C87.7875 90.776 88.0576 90.9303 88.2823 91.1394C88.7548 91.6941 89.0737 92.3627 89.2072 93.0786C89.3406 93.7946 89.284 94.5329 89.043 95.2202C88.928 95.5176 88.736 95.7792 88.4867 95.9784C88.2373 96.1775 87.9396 96.3071 87.6237 96.3538ZM87.4988 95.651C88.3845 95.4923 88.7592 94.6308 88.5094 93.2705C88.2596 91.9102 87.6237 91.2301 86.738 91.3888C85.8524 91.5475 85.489 92.3976 85.7388 93.7693C85.9886 95.1409 86.6131 95.7644 87.4988 95.6057V95.651Z" fill="#8A4C51"/>
</g>
<defs>
<clipPath id="clip0">
<rect width="172" height="97" fill="white"/>
</clipPath>
</defs>
</svg>
